<svg xmlns="http://www.w3.org/2000/svg" width="26" height="41" fill="none"><path fill="#81B3D2" stroke="#EEE" d="M3.285 21.54c.131.163.28.344.435.535.508.62 1.098 1.342 1.444 1.873 2.703 4.155 6.12 10.118 7.11 14.967.046.223.1.424.169.58.034.078.084.171.158.254a.609.609 0 0 0 .421.209.605.605 0 0 0 .448-.173.935.935 0 0 0 .178-.244c.08-.151.147-.349.206-.568.713-2.64 2.565-8.423 6.39-14.47.43-.681 1.326-1.661 1.918-2.31l.002-.001c.874-.958 1.6-2.054 2.153-3.248a12.694 12.694 0 0 0 1.183-5.343C25.5 6.624 19.91.958 13 .958S.5 6.623.5 13.6c0 3.01 1.046 5.77 2.785 7.94Zm9.48-2.937c-1.73-.182-2.954-.836-3.831-1.76-.882-.93-1.445-2.166-1.787-3.561.025-3.523 2.29-6.383 5.617-6.383 3.376 0 6.064 2.917 6.089 6.394-.34 1.72-1.001 2.94-1.974 3.78-.976.842-2.32 1.346-4.115 1.53Z"/><path fill="#fff" stroke="#EEE" d="M18.853 12.752a5.853 5.853 0 1 1-11.706 0 5.853 5.853 0 0 1 11.706 0Z"/></svg>